<?xml version="1.0" encoding="UTF-8" standalone="no"?>
<!-- Created with Inkscape (http://www.inkscape.org/) -->

<svg
   width="512"
   height="512"
   viewBox="0 0 512 512"
   version="1.1"
   id="svg5"
   inkscape:export-filename="tresml_light.svg"
   inkscape:export-xdpi="96"
   inkscape:export-ydpi="96"
   xmlns:inkscape="http://www.inkscape.org/namespaces/inkscape"
   xmlns:sodipodi="http://sodipodi.sourceforge.net/DTD/sodipodi-0.dtd"
   xmlns="http://www.w3.org/2000/svg"
   xmlns:svg="http://www.w3.org/2000/svg">
  <sodipodi:namedview
     id="namedview7"
     pagecolor="#505050"
     bordercolor="#ffffff"
     borderopacity="1"
     inkscape:showpageshadow="0"
     inkscape:pageopacity="0"
     inkscape:pagecheckerboard="1"
     inkscape:deskcolor="#505050"
     inkscape:document-units="px"
     showgrid="false" />
  <defs
     id="defs2" />
  <g
     inkscape:label="Layer 1"
     inkscape:groupmode="layer"
     id="layer1">
    <path
       style="fill:#a60eff;fill-opacity:1"
       d="m 88.877671,298.80948 c 0,0 81.673729,-206.665252 179.766949,0.99576 98.09322,207.66102 -179.766949,-0.99576 -179.766949,-0.99576 z"
       id="path296" />
    <path
       style="fill:#a60eff;fill-opacity:1"
       d="m 197.94962,297.05379 c 0,0 81.67373,-206.665256 179.76695,0.99576 98.09322,207.66102 -179.76695,-0.99576 -179.76695,-0.99576 z"
       id="path296-3" />
    <path
       style="fill:#a60eff;fill-opacity:1"
       d="m 310.67791,297.38525 c 0,0 81.67373,-206.665258 179.76695,0.99576 98.09322,207.66102 -179.76695,-0.99576 -179.76695,-0.99576 z"
       id="path296-3-6" />
    <path
       style="fill:#a60eff;fill-opacity:1"
       d="m 146.54511,237.04926 c 0,0 -2.72899,-68.44296 -70.33502,-66.65862 -67.6060369,1.78433 -114.131453,79.23462 -21.061286,88.70599 93.070166,9.47136 83.347446,67.06189 83.347446,67.06189 z"
       id="path352" />
  </g>
</svg>
